<?xml version="1.0" encoding="UTF-8" standalone="no"?>
<!-- Created with Inkscape (http://www.inkscape.org/) -->

<svg
   xmlns:dc="http://purl.org/dc/elements/1.1/"
   xmlns:cc="http://creativecommons.org/ns#"
   xmlns:rdf="http://www.w3.org/1999/02/22-rdf-syntax-ns#"
   xmlns:svg="http://www.w3.org/2000/svg"
   xmlns="http://www.w3.org/2000/svg"
   xmlns:sodipodi="http://sodipodi.sourceforge.net/DTD/sodipodi-0.dtd"
   xmlns:inkscape="http://www.inkscape.org/namespaces/inkscape"
   width="924.65308"
   height="736.64008"
   id="svg2"
   inkscape:label="Pozadí"
   version="1.1"
   inkscape:version="0.48.3.1 r9886"
   sodipodi:docname="logo.svg">
  <defs
     id="defs3" />
  <sodipodi:namedview
     id="base"
     pagecolor="#ffffff"
     bordercolor="#666666"
     borderopacity="1.0"
     inkscape:pageopacity="0.0"
     inkscape:pageshadow="2"
     inkscape:zoom="0.49497475"
     inkscape:cx="255.50358"
     inkscape:cy="557.83865"
     inkscape:document-units="px"
     inkscape:current-layer="layer1"
     showgrid="false"
     inkscape:window-width="1440"
     inkscape:window-height="845"
     inkscape:window-x="-2"
     inkscape:window-y="765"
     inkscape:window-maximized="1"
     inkscape:snap-page="false"
     inkscape:snap-grids="false"
     fit-margin-top="0"
     fit-margin-left="0"
     fit-margin-right="0"
     fit-margin-bottom="0" />
  <metadata
     id="metadata6">
    <rdf:RDF>
      <cc:Work
         rdf:about="">
        <dc:format>image/svg+xml</dc:format>
        <dc:type
           rdf:resource="http://purl.org/dc/dcmitype/StillImage" />
        <dc:title></dc:title>
      </cc:Work>
    </rdf:RDF>
  </metadata>
  <g
     inkscape:label="Vrstva 1"
     inkscape:groupmode="layer"
     id="layer1"
     transform="translate(-3.833297,-310.36809)">
    <g
       id="g4001"
       transform="matrix(1.871241,0,0,1.871241,-211.87476,-247.98457)">
      <g
         style="fill:#5b874b;fill-opacity:1"
         id="g3128">
        <path
           inkscape:connector-curvature="0"
           style="fill:#5b874b;fill-opacity:1;stroke:#000000;stroke-width:3.77009797;stroke-linecap:butt;stroke-linejoin:miter;stroke-miterlimit:4;stroke-opacity:1;stroke-dasharray:none"
           d="m 192.02206,511.20211 c 98.37485,11.55735 98.37485,11.55735 98.37485,11.55735"
           id="path3785" />
        <path
           sodipodi:type="arc"
           style="fill:#5b874b;fill-opacity:1;stroke:#000000;stroke-width:16.02231979;stroke-miterlimit:4;stroke-opacity:1;stroke-dasharray:none"
           id="path3589-5"
           sodipodi:cx="327.14285"
           sodipodi:cy="342.36218"
           sodipodi:rx="155.71428"
           sodipodi:ry="155.71428"
           d="m 482.85713,342.36218 c 0,85.99862 -69.71566,155.71428 -155.71428,155.71428 -85.99862,0 -155.71428,-69.71566 -155.71428,-155.71428 0,-85.99862 69.71566,-155.71428 155.71428,-155.71428 85.99862,0 155.71428,69.71566 155.71428,155.71428 z"
           transform="matrix(0.17772483,0,0,0.17399713,455.07457,403.95792)" />
        <path
           sodipodi:type="arc"
           style="fill:#5b874b;fill-opacity:1;stroke:#000000;stroke-width:12.30083942;stroke-miterlimit:4;stroke-opacity:1;stroke-dasharray:none"
           id="path3589-3-1"
           sodipodi:cx="327.14285"
           sodipodi:cy="342.36218"
           sodipodi:rx="155.71428"
           sodipodi:ry="155.71428"
           d="m 482.85713,342.36218 c 0,85.99862 -69.71566,155.71428 -155.71428,155.71428 -85.99862,0 -155.71428,-69.71566 -155.71428,-155.71428 0,-85.99862 69.71566,-155.71428 155.71428,-155.71428 85.99862,0 155.71428,69.71566 155.71428,155.71428 z"
           transform="matrix(0.30975684,0,0,0.30325978,178.24096,243.6479)" />
        <path
           sodipodi:type="arc"
           style="fill:#5b874b;fill-opacity:1;stroke:#000000;stroke-width:16.02231979;stroke-miterlimit:4;stroke-opacity:1;stroke-dasharray:none"
           id="path3589-5-6"
           sodipodi:cx="327.14285"
           sodipodi:cy="342.36218"
           sodipodi:rx="155.71428"
           sodipodi:ry="155.71428"
           d="m 482.85713,342.36218 c 0,85.99862 -69.71566,155.71428 -155.71428,155.71428 -85.99862,0 -155.71428,-69.71566 -155.71428,-155.71428 0,-85.99862 69.71566,-155.71428 155.71428,-155.71428 85.99862,0 155.71428,69.71566 155.71428,155.71428 z"
           transform="matrix(0.18373336,0,0,0.1798796,387.68965,336.93371)" />
        <path
           sodipodi:type="arc"
           style="fill:#5b874b;fill-opacity:1;stroke:#000000;stroke-width:16.02231979;stroke-miterlimit:4;stroke-opacity:1;stroke-dasharray:none"
           id="path3589-5-8"
           sodipodi:cx="327.14285"
           sodipodi:cy="342.36218"
           sodipodi:rx="155.71428"
           sodipodi:ry="155.71428"
           d="m 482.85713,342.36218 c 0,85.99862 -69.71566,155.71428 -155.71428,155.71428 -85.99862,0 -155.71428,-69.71566 -155.71428,-155.71428 0,-85.99862 69.71566,-155.71428 155.71428,-155.71428 85.99862,0 155.71428,69.71566 155.71428,155.71428 z"
           transform="matrix(0.18373336,0,0,0.1798796,469.3408,487.1796)" />
        <path
           sodipodi:type="arc"
           style="fill:#5b874b;fill-opacity:1;stroke:#000000;stroke-width:16.02231979;stroke-miterlimit:4;stroke-opacity:1;stroke-dasharray:none"
           id="path3589-5-8-7"
           sodipodi:cx="327.14285"
           sodipodi:cy="342.36218"
           sodipodi:rx="155.71428"
           sodipodi:ry="155.71428"
           d="m 482.85713,342.36218 c 0,85.99862 -69.71566,155.71428 -155.71428,155.71428 -85.99862,0 -155.71428,-69.71566 -155.71428,-155.71428 0,-85.99862 69.71566,-155.71428 155.71428,-155.71428 85.99862,0 155.71428,69.71566 155.71428,155.71428 z"
           transform="matrix(0.18373336,0,0,0.1798796,430.97459,567.11815)" />
        <path
           inkscape:connector-curvature="0"
           style="fill:#5b874b;fill-opacity:1;stroke:#000000;stroke-width:3.77009797;stroke-linecap:butt;stroke-linejoin:miter;stroke-miterlimit:4;stroke-opacity:1;stroke-dasharray:none"
           d="m 468.45541,418.74307 c 25.5775,25.04101 25.5775,25.04101 25.5775,25.04101"
           id="path3727" />
        <path
           inkscape:connector-curvature="0"
           style="fill:#5b874b;fill-opacity:1;stroke:#000000;stroke-width:3.77009797;stroke-linecap:butt;stroke-linejoin:miter;stroke-miterlimit:4;stroke-opacity:1;stroke-dasharray:none"
           d="m 520.59412,489.05045 c 4.91869,30.81974 4.91869,30.81974 4.91869,30.81974"
           id="path3729" />
        <path
           inkscape:connector-curvature="0"
           style="fill:#5b874b;fill-opacity:1;stroke:#000000;stroke-width:3.77009797;stroke-linecap:butt;stroke-linejoin:miter;stroke-miterlimit:4;stroke-opacity:1;stroke-dasharray:none"
           d="m 518.62658,574.7677 c -11.80496,28.89344 -11.80496,28.89344 -11.80496,28.89344"
           id="path3731" />
        <path
           inkscape:connector-curvature="0"
           style="fill:#5b874b;fill-opacity:1;stroke:#000000;stroke-width:3.77009797;stroke-linecap:butt;stroke-linejoin:miter;stroke-miterlimit:4;stroke-opacity:1;stroke-dasharray:none"
           d="M 471.40665,607.51358 C 454.68296,590.17757 454.68296,590.17757 454.68296,590.17757"
           id="path3733" />
        <path
           inkscape:connector-curvature="0"
           style="fill:#5b874b;fill-opacity:1;stroke:#000000;stroke-width:3.77009797;stroke-linecap:butt;stroke-linejoin:miter;stroke-miterlimit:4;stroke-opacity:1;stroke-dasharray:none"
           d="m 326.79562,353.25126 c 95.42357,34.67215 95.42357,34.67215 95.42357,34.67215"
           id="path3735" />
        <path
           sodipodi:type="arc"
           style="fill:#5b874b;fill-opacity:1;stroke:#000000;stroke-width:12.30083942;stroke-miterlimit:4;stroke-opacity:1;stroke-dasharray:none"
           id="path3589-3-7"
           sodipodi:cx="327.14285"
           sodipodi:cy="342.36218"
           sodipodi:rx="155.71428"
           sodipodi:ry="155.71428"
           d="m 482.85713,342.36218 c 0,85.99862 -69.71566,155.71428 -155.71428,155.71428 -85.99862,0 -155.71428,-69.71566 -155.71428,-155.71428 0,-85.99862 69.71566,-155.71428 155.71428,-155.71428 85.99862,0 155.71428,69.71566 155.71428,155.71428 z"
           transform="matrix(0.2513411,0,0,0.24606927,73.73343,320.42559)" />
        <path
           inkscape:connector-curvature="0"
           style="fill:#5b874b;fill-opacity:1;stroke:#000000;stroke-width:3.77009797;stroke-linecap:butt;stroke-linejoin:miter;stroke-miterlimit:4;stroke-opacity:1;stroke-dasharray:none"
           d="M 271.70568,393.7021 C 239.24199,543.94803 239.24199,543.94803 239.24199,543.94803"
           id="path3781" />
        <path
           sodipodi:type="arc"
           style="fill:#5b874b;fill-opacity:1;stroke:#000000;stroke-width:21.08276749;stroke-miterlimit:4;stroke-opacity:1;stroke-dasharray:none"
           id="path3589-5-6-2-1"
           sodipodi:cx="327.14285"
           sodipodi:cy="342.36218"
           sodipodi:rx="155.71428"
           sodipodi:ry="155.71428"
           d="m 482.85713,342.36218 c 0,85.99862 -69.71566,155.71428 -155.71428,155.71428 -85.99862,0 -155.71428,-69.71566 -155.71428,-155.71428 0,-85.99862 69.71566,-155.71428 155.71428,-155.71428 85.99862,0 155.71428,69.71566 155.71428,155.71428 z"
           transform="matrix(0.18072907,0,0,0.17693832,172.24772,510.33826)" />
        <path
           inkscape:connector-curvature="0"
           style="fill:#5b874b;fill-opacity:1;stroke:#000000;stroke-width:3.77009797;stroke-linecap:butt;stroke-linejoin:miter;stroke-miterlimit:4;stroke-opacity:1;stroke-dasharray:none"
           d="m 234.32322,362.88248 c -42.30116,26.00406 -42.30116,26.00406 -42.30116,26.00406"
           id="path3783" />
        <path
           inkscape:connector-curvature="0"
           style="fill:#5b874b;fill-opacity:1;stroke:#000000;stroke-width:3.77009797;stroke-linecap:butt;stroke-linejoin:miter;stroke-miterlimit:4;stroke-opacity:1;stroke-dasharray:none"
           d="M 206.77826,649.89068 C 307.1206,584.39883 307.1206,584.39883 307.1206,584.39883"
           id="path3787" />
        <path
           sodipodi:type="arc"
           style="fill:#5b874b;fill-opacity:1;stroke:#000000;stroke-width:21.08276749;stroke-miterlimit:4;stroke-opacity:1;stroke-dasharray:none"
           id="path3589-5-6-2"
           sodipodi:cx="327.14285"
           sodipodi:cy="342.36218"
           sodipodi:rx="155.71428"
           sodipodi:ry="155.71428"
           d="m 482.85713,342.36218 c 0,85.99862 -69.71566,155.71428 -155.71428,155.71428 -85.99862,0 -155.71428,-69.71566 -155.71428,-155.71428 0,-85.99862 69.71566,-155.71428 155.71428,-155.71428 85.99862,0 155.71428,69.71566 155.71428,155.71428 z"
           transform="matrix(0.18072907,0,0,0.17693832,103.76159,448.21733)" />
        <path
           sodipodi:type="arc"
           style="fill:#5b874b;fill-opacity:1;stroke:#000000;stroke-width:12.30083942;stroke-miterlimit:4;stroke-opacity:1;stroke-dasharray:none"
           id="path3589-3-1-2"
           sodipodi:cx="327.14285"
           sodipodi:cy="342.36218"
           sodipodi:rx="155.71428"
           sodipodi:ry="155.71428"
           d="m 482.85713,342.36218 c 0,85.99862 -69.71566,155.71428 -155.71428,155.71428 -85.99862,0 -155.71428,-69.71566 -155.71428,-155.71428 0,-85.99862 69.71566,-155.71428 155.71428,-155.71428 85.99862,0 155.71428,69.71566 155.71428,155.71428 z"
           transform="matrix(0.23403275,0,0,0.22912399,494.97234,313.63584)" />
        <path
           sodipodi:type="arc"
           style="fill:#5b874b;fill-opacity:1;stroke:#000000;stroke-width:12.30083942;stroke-miterlimit:4;stroke-opacity:1;stroke-dasharray:none"
           id="path3589-3"
           sodipodi:cx="327.14285"
           sodipodi:cy="342.36218"
           sodipodi:rx="155.71428"
           sodipodi:ry="155.71428"
           d="m 482.85713,342.36218 c 0,85.99862 -69.71566,155.71428 -155.71428,155.71428 -85.99862,0 -155.71428,-69.71566 -155.71428,-155.71428 0,-85.99862 69.71566,-155.71428 155.71428,-155.71428 85.99862,0 155.71428,69.71566 155.71428,155.71428 z"
           transform="matrix(0.22105148,0,0,0.21641499,102.03458,582.92972)" />
        <path
           inkscape:connector-curvature="0"
           style="fill:#5b874b;fill-opacity:1;stroke:#000000;stroke-width:3.94125915px;stroke-linecap:butt;stroke-linejoin:miter;stroke-opacity:1"
           d="m 535.12605,388.20985 c -58.83389,2.74286 -58.83389,3.42856 -58.83389,3.42856"
           id="path3813" />
        <path
           inkscape:connector-curvature="0"
           style="fill:#5b874b;fill-opacity:1;stroke:#000000;stroke-width:3.94125915px;stroke-linecap:butt;stroke-linejoin:miter;stroke-opacity:1"
           d="m 569.44582,427.29546 c -23.11331,99.42829 -23.11331,99.42829 -23.11331,99.42829"
           id="path3815" />
        <path
           inkscape:connector-curvature="0"
           style="fill:#5b874b;fill-opacity:1;stroke:#000000;stroke-width:3.94125915px;stroke-linecap:butt;stroke-linejoin:miter;stroke-opacity:1"
           d="m 306.75097,386.42583 c 40.12353,64.13831 40.12353,63.69442 40.12353,63.69442"
           id="path3819" />
        <path
           sodipodi:type="arc"
           style="fill:#5b874b;fill-opacity:1;stroke:#000000;stroke-width:6.44401932;stroke-miterlimit:4;stroke-opacity:1;stroke-dasharray:none"
           id="path3589"
           sodipodi:cx="327.14285"
           sodipodi:cy="342.36218"
           sodipodi:rx="155.71428"
           sodipodi:ry="155.71428"
           d="m 482.85713,342.36218 c 0,85.99862 -69.71566,155.71428 -155.71428,155.71428 -85.99862,0 -155.71428,-69.71566 -155.71428,-155.71428 0,-85.99862 69.71566,-155.71428 155.71428,-155.71428 85.99862,0 155.71428,69.71566 155.71428,155.71428 z"
           transform="matrix(0.59128772,0,0,0.57888562,189.30073,335.01041)" />
      </g>
      <text
         sodipodi:linespacing="125%"
         id="text20911"
         y="547.96851"
         x="293.5372"
         style="font-size:47.62666702px;font-style:normal;font-weight:normal;line-height:125%;letter-spacing:0px;word-spacing:0px;fill:#ffffff;fill-opacity:1;stroke:none;font-family:Bitstream Vera Sans"
         xml:space="preserve"><tspan
           id="tspan20915"
           y="547.96851"
           x="293.5372"
           sodipodi:role="line">Nodalis</tspan></text>
    </g>
  </g>
</svg>
